<!-- Generated by IcoMoon.io -->
<svg version="1.1" xmlns="http://www.w3.org/2000/svg" width="1024" height="1024" viewBox="0 0 1024 1024">
<title></title>
<g id="icomoon-ignore">
</g>
<path fill="#000" d="M940.8 147.312c-53.729-53.732-125.156-83.3-201.144-83.3-75.999 0-147.433 29.568-201.182 83.3l-26.477 26.482-26.477-26.482c-53.732-53.732-125.183-83.3-201.165-83.3-75.98 0-147.436 29.568-201.163 83.3-110.926 110.936-110.926 291.435 0 402.328l397.478 397.48c6.499 6.523 14.59 10.517 23.042 12.055 2.835 0.559 5.686 0.819 8.542 0.819 11.244 0 22.507-4.289 31.071-12.874l397.478-397.48c110.931-110.893 110.931-291.392-0.003-402.328zM878.658 487.501l-366.658 366.664-366.666-366.664c-76.658-76.647-76.658-201.357 0-278.045 37.132-37.127 86.519-57.548 139.021-57.548 52.508 0 101.881 20.421 139 57.548l57.572 57.591c16.503 16.478 45.66 16.478 62.16 0l57.55-57.591c37.121-37.127 86.497-57.548 139.021-57.548 52.508 0 101.878 20.421 139 57.548 76.666 76.688 76.666 201.395 0 278.045z"></path>
</svg>
