<!-- Generated by IcoMoon.io -->
<svg version="1.1" xmlns="http://www.w3.org/2000/svg" width="1024" height="1024" viewBox="0 0 1024 1024">
<title></title>
<g id="icomoon-ignore">
</g>
<path fill="#000" d="M917 186h-168.4v-56.4c0-22.6-18.2-40.8-40.8-40.8h-154.8v-26c0-22.6-18.2-40.8-40.8-40.8s-40.8 18.2-40.8 40.8v26h-154.8c-22.6 0-40.8 18.2-40.8 40.8v56.4h-168.8c-22.6 0-40.8 18.2-40.8 40.8v679.4c0 52.8 43 95.8 95.8 95.8h700c52.8 0 95.8-43 95.8-95.8v-679.2c0-22.6-18.4-41-40.8-41zM357.2 170.4h309.6v107.4h-309.6v-107.4zM876.2 906.2c0 7.8-6.4 14-14 14h-700.2c-7.8 0-14-6.4-14-14v-638.4h127.6v51c0 22.6 18.2 40.8 40.8 40.8h391.4c22.6 0 40.8-18.2 40.8-40.8v-51h127.6v638.4z"></path>
<path fill="#000" d="M616 510.6l-152.4 152.4-57.2-52c-16.8-15.2-42.6-14-57.6 2.8-15.2 16.6-14 42.6 2.8 57.6l86 78.2c7.8 7 17.6 10.6 27.4 10.6 10.4 0 21-4 28.8-12l179.8-179.8c16-16 16-41.8 0-57.8-15.8-16-41.6-16-57.6 0z"></path>
</svg>
