<!-- Generated by IcoMoon.io -->
<svg version="1.1" xmlns="http://www.w3.org/2000/svg" width="1024" height="1024" viewBox="0 0 1024 1024">
<title></title>
<g id="icomoon-ignore">
</g>
<path fill="#000" d="M991.284 932.702l-243.714-253.474c62.663-74.491 96.997-168.216 96.997-265.788 0-227.967-185.473-413.44-413.44-413.44s-413.44 185.473-413.44 413.44 185.473 413.44 413.44 413.44c85.582 0 167.137-25.813 236.865-74.815l245.565 255.398c10.264 10.66 24.069 16.538 38.863 16.538 14.003 0 27.287-5.339 37.371-15.046 21.427-20.618 22.11-54.808 1.492-76.253zM431.128 107.854c168.504 0 305.586 137.082 305.586 305.586s-137.082 305.586-305.586 305.586-305.586-137.082-305.586-305.586 137.082-305.586 305.586-305.586z"></path>
</svg>
