<!-- Generated by IcoMoon.io -->
<svg version="1.1" xmlns="http://www.w3.org/2000/svg" width="1024" height="1024" viewBox="0 0 1024 1024">
<title></title>
<g id="icomoon-ignore">
</g>
<path fill="#000" d="M699.972 774.639l-163.038-81.51c-15.377-7.697-24.934-23.159-24.934-40.363v-57.702c3.908-4.779 8.021-10.223 12.271-16.23 21.146-29.867 38.093-63.113 50.415-98.97 24.081-11.042 39.714-34.85 39.714-61.73v-68.267c0-16.435-6.144-32.358-17.067-44.8v-90.778c0.956-9.387 4.71-65.263-35.703-111.36-35.055-39.987-91.938-60.262-169.097-60.262s-134.042 20.275-169.097 60.245c-40.414 46.097-36.659 101.99-35.703 111.36v90.778c-10.923 12.442-17.067 28.365-17.067 44.8v68.267c0 20.77 9.438 40.141 25.549 53.060 15.633 61.901 48.35 108.544 59.785 123.511v56.474c0 16.521-9.011 31.676-23.501 39.595l-152.252 83.046c-49.51 27.034-80.247 78.814-80.247 135.202v72.329h785.067v-69.001c0-58.692-32.614-111.445-85.094-137.694z"></path>
<path fill="#000" d="M946.637 794.044l-165.939-71.851c-3.925-1.963-8.277-6.758-12.015-13.158l111.36-0.085c0 0 6.434 0.631 16.418 0.631 18.313 0 45.022-2.082 68.267-12.066 13.943-6.007 24.32-17.869 28.484-32.546 4.198-14.814 1.536-30.498-7.27-43.059-31.829-45.295-106.121-163.652-108.442-283.699-0.051-2.065-6.775-206.217-208.384-207.872-20.258 0.171-39.407 2.662-57.549 7.049 13.517 35.738 12.271 67.721 11.349 78.097v80.777c11.059 15.735 17.067 34.423 17.067 53.606v68.267c0 32.546-17.135 62.669-44.493 79.565-12.766 34.509-29.662 66.748-50.33 95.932-2.56 3.635-5.086 7.066-7.561 10.308v48.811c0 7.543 4.028 14.080 10.769 17.442l163.038 81.51c61.218 30.618 99.243 92.143 99.243 160.597v69.035h213.35v-63.095c0-52.77-29.321-100.181-77.363-124.194z"></path>
</svg>
