<!-- Generated by IcoMoon.io -->
<svg version="1.1" xmlns="http://www.w3.org/2000/svg" width="1024" height="1024" viewBox="0 0 1024 1024">
<title></title>
<g id="icomoon-ignore">
</g>
<path fill="#000" d="M819.439 731.972l-163.038-81.51c-15.377-7.697-24.934-23.159-24.934-40.363v-57.702c3.908-4.779 8.021-10.223 12.271-16.23 21.146-29.867 38.093-63.113 50.415-98.97 24.081-11.042 39.714-34.85 39.714-61.73v-68.267c0-16.435-6.144-32.358-17.067-44.8v-90.778c0.956-9.387 4.71-65.263-35.703-111.36-35.055-39.987-91.938-60.262-169.097-60.262s-134.042 20.275-169.097 60.245c-40.414 46.097-36.659 101.99-35.703 111.377v90.778c-10.923 12.442-17.067 28.365-17.067 44.8v68.267c0 20.77 9.438 40.141 25.549 53.060 15.633 61.901 48.35 108.544 59.785 123.511v56.474c0 16.521-9.011 31.676-23.501 39.595l-152.252 83.046c-49.51 27.017-80.247 78.797-80.247 135.185v55.262c0 80.998 256.768 102.4 392.533 102.4s392.533-21.402 392.533-102.4v-51.934c0-58.675-32.614-111.445-85.094-137.694z"></path>
</svg>
