<!-- Generated by IcoMoon.io -->
<svg version="1.1" xmlns="http://www.w3.org/2000/svg" width="1024" height="1024" viewBox="0 0 1024 1024">
<title></title>
<g id="icomoon-ignore">
</g>
<path fill="#000" d="M818.586 748.629l-187.341-81.118c-5.803-2.901-11.964-10.308-17.613-18.978l130.901-0.085c0 0 7.168 0.7 18.261 0.7 20.463 0 50.295-2.321 76.169-13.431 15.121-6.502 26.385-19.371 30.908-35.294 4.557-16.077 1.69-33.109-7.885-46.746-36.028-51.268-120.098-185.242-122.726-321.263-0.051-2.321-7.578-230.571-232.909-232.414-132.011 1.075-194.577 78.797-223.812 143.787-14.217 31.607-22.562 68.54-25.481 112.845-8.585 129.963-76.442 254.225-105.233 301.636-7.578 12.459-9.899 27.75-6.383 41.95 3.482 13.995 12.117 25.737 24.354 33.058 21.828 13.039 46.029 15.787 62.498 15.787 5.53 0 9.591-0.341 11.486-0.512h125.679c-7.561 5.734-10.598 7.543-11.708 8.175l-158.054 91.529c-49.493 26.982-80.23 78.763-80.23 135.151v38.195c0 80.998 256.768 102.4 392.533 102.4s392.533-21.402 392.533-102.4v-34.867c0-58.675-32.614-111.445-85.948-138.103z"></path>
</svg>
